<svg width="7" height="5" viewBox="0 0 7 5" fill="none" xmlns="http://www.w3.org/2000/svg">
<path d="M1.26329 1.94719C2.7211 1.31219 3.69298 0.893518 4.17891 0.691252C5.56798 0.113674 5.85626 0.0133615 6.04454 0.00996308C6.08594 0.00929902 6.17813 0.0195333 6.23829 0.0681661C6.28829 0.109182 6.30235 0.164651 6.30938 0.203596C6.31563 0.242502 6.32423 0.331174 6.31719 0.400393C6.24219 1.19102 5.91641 3.10961 5.75079 3.99516C5.68126 4.36985 5.54298 4.49547 5.40938 4.50774C5.11876 4.53446 4.89845 4.31586 4.61719 4.13157C4.17735 3.84305 3.92891 3.66352 3.50157 3.38203C3.00782 3.05672 3.32813 2.87789 3.60938 2.58571C3.68282 2.50922 4.96251 1.34555 4.98673 1.24C4.98985 1.2268 4.99298 1.17758 4.96329 1.15164C4.93438 1.12563 4.89141 1.13453 4.86016 1.14156C4.81563 1.15156 4.11329 1.61625 2.75079 2.53555C2.55157 2.67258 2.3711 2.73938 2.2086 2.73586C2.03048 2.73203 1.68673 2.63492 1.43126 2.55196C1.11876 2.45016 0.869539 2.39633 0.891414 2.22344C0.902351 2.13344 1.02657 2.04133 1.26329 1.94719Z" fill="white"/>
</svg>
