<svg width="10" height="10" viewBox="0 0 10 10" fill="none" xmlns="http://www.w3.org/2000/svg">
<path fill-rule="evenodd" clip-rule="evenodd" d="M5 0C2.2375 0 0 2.2375 0 5C0 7.2125 1.43125 9.08125 3.41875 9.74375C3.66875 9.7875 3.7625 9.6375 3.7625 9.50625C3.7625 9.3875 3.75625 8.99375 3.75625 8.575C2.5 8.80625 2.175 8.26875 2.075 7.9875C2.01875 7.84375 1.775 7.4 1.5625 7.28125C1.3875 7.1875 1.1375 6.95625 1.55625 6.95C1.95 6.94375 2.23125 7.3125 2.325 7.4625C2.775 8.21875 3.49375 8.00625 3.78125 7.875C3.825 7.55 3.95625 7.33125 4.1 7.20625C2.9875 7.08125 1.825 6.65 1.825 4.7375C1.825 4.19375 2.01875 3.74375 2.3375 3.39375C2.2875 3.26875 2.1125 2.75625 2.3875 2.06875C2.3875 2.06875 2.80625 1.9375 3.7625 2.58125C4.1625 2.46875 4.5875 2.4125 5.0125 2.4125C5.4375 2.4125 5.8625 2.46875 6.2625 2.58125C7.21875 1.93125 7.6375 2.06875 7.6375 2.06875C7.9125 2.75625 7.7375 3.26875 7.6875 3.39375C8.00625 3.74375 8.2 4.1875 8.2 4.7375C8.2 6.65625 7.03125 7.08125 5.91875 7.20625C6.1 7.3625 6.25625 7.6625 6.25625 8.13125C6.25625 8.8 6.25 9.3375 6.25 9.50625C6.25 9.6375 6.34375 9.79375 6.59375 9.74375C7.58632 9.40863 8.44882 8.7707 9.05986 7.91973C9.6709 7.06877 9.9997 6.04762 10 5C10 2.2375 7.7625 0 5 0Z" fill="#20222B"/>
</svg>
